# xmcd
#
# Track frame offsets:
#	150
#	15662
#	29185
#	46587
#	61427
#	75582
#	87937
#	105415
#	118992
#	131467
#	150087
#	165350
#	196870
#	211415
#	226295
#	240475
#	266492
#	283480
#	306375
#	322502
#
# Disc length: 4467 seconds
#
# Revision: 4
# Processed by: cddbd v1.5.2PL0 Copyright (c) Steve Scherf et al.
# Submitted via: audiograbber 1.83.01
#
DISCID=00117114
DTITLE=Poco - The Forgotten Trail (1969-74) [CD 1)
DYEAR=1990
DGENRE=Country Rock
TTITLE0=Pickin' Up The Pieces
TTITLE1=Grand Junction
TTITLE2=Consequently So Long
TTITLE3=First Love [remixed 8-track master]
TTITLE4=Calico Lady
TTITLE5=My Kind Of Love [7" single]
TTITLE6=Hard Luck [7" single B-side]
TTITLE7=Last Call (Cold Enchilada #3) [studio recording]
TTITLE8=Honky Tonk Downstairs
TTITLE9=Hurry Up
TTITLE10=You Better Think Twice
TTITLE11=Anyway Bye Bye
TTITLE12=I Guess You Made It [studio version]
TTITLE13=C'mon
TTITLE14=Hear That Music
TTITLE15=Kind Woman
TTITLE16=Just For Me And You
TTITLE17=Bad Weather
TTITLE18=You Better Think Twice [acoustic version - remixed 16-track master]
TTITLE19=Lullaby In September [remixed 16-track master]
EXTD=
EXTT0=
EXTT1=
EXTT2=
EXTT3=
EXTT4=
EXTT5=
EXTT6=
EXTT7=
EXTT8=
EXTT9=
EXTT10=
EXTT11=
EXTT12=
EXTT13=
EXTT14=
EXTT15=
EXTT16=
EXTT17=
EXTT18=
EXTT19=
PLAYORDER=
